<svg id="svg" version="1.1" xmlns="http://www.w3.org/2000/svg" xmlns:xlink="http://www.w3.org/1999/xlink" viewBox="0, 0, 400,386">
    <g id="svgg" >
            <path id="path1" d="M122.833 2.432 C 120.398 2.659,116.293 3.202,114.750 3.501 C 109.935 4.434,109.707 4.502,108.118 5.454 C 102.651 8.732,98.225 13.436,95.021 19.375 C 93.982 21.300,93.971 21.303,92.852 19.924 C 88.291 14.302,83.402 12.269,74.417 12.256 C 67.496 12.247,66.540 12.777,66.603 16.588 C 66.631 18.292,66.991 18.879,69.045 20.572 C 72.297 23.253,73.491 25.063,76.480 31.848 C 77.231 33.551,78.330 35.817,78.922 36.883 C 80.279 39.323,80.322 39.120,78.212 40.273 C 57.929 51.358,40.469 73.168,33.159 96.552 C 32.889 97.417,32.574 98.202,32.459 98.297 C 32.344 98.392,26.175 101.057,18.750 104.219 C 11.325 107.382,5.063 110.056,4.833 110.163 C 4.371 110.377,2.837 112.808,2.424 113.979 C 1.970 115.266,2.103 115.795,3.735 119.196 L 4.509 120.808 13.546 127.354 C 18.517 130.954,23.483 134.551,24.583 135.346 C 25.683 136.142,26.747 136.934,26.947 137.105 C 27.293 137.402,27.319 137.621,27.491 141.667 C 29.784 195.393,58.859 252.346,100.167 284.026 C 119.405 298.780,142.054 309.701,164.583 315.087 C 166.417 315.525,167.968 315.929,168.032 315.984 C 168.095 316.038,167.774 317.621,167.318 319.500 C 165.475 327.103,164.116 334.128,163.265 340.466 L 162.855 343.515 161.461 345.133 C 154.828 352.830,150.086 361.788,148.005 370.550 C 146.312 377.677,147.343 380.468,151.679 380.493 C 154.729 380.510,155.844 379.394,156.416 375.750 C 157.075 371.551,158.684 367.075,161.418 361.833 L 162.071 360.583 162.278 363.167 C 162.827 370.006,163.904 375.191,165.782 380.028 L 166.538 381.974 167.491 382.482 C 169.968 383.802,172.282 383.802,174.610 382.481 C 175.936 381.729,175.996 380.046,174.799 377.250 C 172.665 372.267,171.611 367.002,171.396 360.250 L 171.290 356.917 171.853 357.431 C 175.737 360.980,186.470 370.479,188.528 372.188 C 190.106 373.500,190.018 373.256,189.706 375.429 C 189.372 377.762,189.557 379.363,190.279 380.391 C 191.951 382.770,196.583 382.685,197.950 380.250 C 198.331 379.573,198.380 379.373,198.992 376.029 C 199.777 371.739,204.333 360.689,204.333 363.075 C 204.333 363.522,204.842 367.234,205.179 369.250 C 206.004 374.179,208.052 381.682,208.716 382.207 C 212.033 384.828,214.823 384.903,217.456 382.444 C 218.147 381.797,218.116 381.554,216.828 377.583 C 214.884 371.593,213.749 365.867,213.242 359.500 L 213.129 358.083 213.523 358.429 C 213.740 358.620,215.079 359.824,216.500 361.106 C 225.091 368.855,231.899 374.770,232.750 375.226 C 233.726 375.749,236.610 375.748,237.583 375.225 C 239.101 374.408,239.583 373.449,239.583 371.250 C 239.583 368.826,239.395 368.512,236.360 365.879 C 228.211 358.811,213.647 345.675,213.290 345.072 C 212.720 344.108,214.737 330.693,216.697 322.417 C 217.479 319.117,217.614 318.833,218.413 318.833 C 218.727 318.833,220.507 318.641,222.367 318.407 C 260.477 313.603,294.941 295.797,321.706 267.083 C 324.317 264.283,323.994 264.496,327.500 263.265 C 349.521 255.535,368.709 240.167,381.207 220.250 C 386.483 211.842,395.329 194.687,395.816 191.917 C 395.913 191.367,396.259 189.717,396.585 188.250 C 398.051 181.660,398.053 181.643,397.362 180.121 C 396.102 177.348,395.687 177.240,391.417 178.574 C 374.384 183.894,361.262 183.605,339.833 177.435 C 308.963 168.546,291.769 157.698,258.834 126.328 C 250.536 118.424,245.533 114.467,238.281 110.074 C 236.999 109.297,236.439 108.830,235.685 107.913 C 234.009 105.870,229.951 100.856,222.336 91.417 C 201.422 65.492,197.634 61.497,186.750 53.871 C 167.107 40.109,140.506 31.351,118.302 31.335 C 117.046 31.334,115.989 31.277,115.951 31.208 C 115.860 31.042,119.204 22.723,120.256 20.500 C 123.102 14.483,125.701 10.659,128.428 8.479 C 130.525 6.802,130.842 6.458,131.177 5.498 L 131.496 4.583 130.668 3.805 C 128.876 2.122,127.935 1.957,122.833 2.432 M120.011 7.339 C 120.556 7.631,120.380 8.207,119.142 10.182 C 116.388 14.576,114.924 17.664,111.407 26.501 C 110.149 29.663,108.755 33.029,108.310 33.982 C 106.755 37.305,106.469 37.164,114.689 37.134 C 140.456 37.042,166.015 45.533,186.352 60.940 C 195.187 67.634,199.363 72.262,221.661 100.074 C 226.411 106.000,226.519 106.578,222.654 105.408 C 198.930 98.224,172.235 113.295,164.102 138.465 C 158.662 155.302,160.528 179.509,168.750 198.750 C 188.632 245.277,252.467 275.477,309.795 265.476 C 315.916 264.408,315.966 264.805,310.373 270.107 C 252.922 324.565,169.433 328.582,104.750 279.999 C 57.179 244.270,26.596 173.713,34.350 117.583 C 38.915 84.540,57.446 57.357,84.857 43.495 C 89.403 41.197,89.457 41.119,87.808 39.240 C 85.316 36.398,83.848 33.945,81.573 28.819 C 79.798 24.819,78.655 22.606,77.491 20.917 C 75.630 18.216,76.429 17.515,80.250 18.496 C 84.727 19.646,87.768 22.346,91.635 28.604 C 94.392 33.065,95.486 33.131,97.101 28.930 C 101.094 18.542,106.749 12.147,115.091 8.584 C 117.890 7.389,119.393 7.008,120.011 7.339 M216.583 108.142 C 227.488 110.218,240.167 117.821,252.895 129.917 C 264.385 140.836,269.996 145.915,276.667 151.435 C 297.469 168.650,316.628 178.334,343.417 185.174 C 360.453 189.524,372.449 189.939,386.595 186.669 C 391.929 185.435,391.912 185.391,388.741 192.083 C 379.112 212.413,372.095 223.441,362.668 233.060 C 338.393 257.828,303.375 268.016,264.910 261.502 C 220.128 253.919,182.301 226.048,170.527 191.962 C 163.464 171.517,163.220 149.768,169.886 134.869 C 176.425 120.254,190.693 109.744,206.667 107.773 C 208.363 107.564,214.805 107.803,216.583 108.142 M180.750 318.152 C 188.579 319.210,200.500 319.884,207.610 319.672 C 207.751 319.668,207.737 319.949,207.556 320.708 C 205.948 327.481,204.669 335.684,204.170 342.417 C 203.836 346.925,203.967 346.451,202.580 348.160 C 199.242 352.271,196.220 357.050,193.886 361.907 C 193.536 362.635,193.174 363.254,193.082 363.282 C 192.846 363.355,183.829 355.392,175.417 347.682 C 171.831 344.395,172.018 344.729,172.331 342.167 C 172.948 337.119,174.522 329.072,176.260 322.083 C 177.352 317.693,177.386 317.603,177.879 317.723 C 178.083 317.773,179.375 317.966,180.750 318.152 " stroke="#040404" fill="black" >
            </path>
            <path id="path2" d="M120.011 7.339 C 120.556 7.631,120.380 8.207,119.142 10.182 C 116.388 14.576,114.924 17.664,111.407 26.501 C 110.149 29.663,108.755 33.029,108.310 33.982 C 106.755 37.305,106.469 37.164,114.689 37.134 C 140.456 37.042,166.015 45.533,186.352 60.940 C 195.187 67.634,199.363 72.262,221.661 100.074 C 226.411 106.000,226.519 106.578,222.654 105.408 C 198.930 98.224,172.235 113.295,164.102 138.465 C 158.662 155.302,160.528 179.509,168.750 198.750 C 188.632 245.277,252.467 275.477,309.795 265.476 C 315.916 264.408,315.966 264.805,310.373 270.107 C 252.922 324.565,169.433 328.582,104.750 279.999 C 57.179 244.270,26.596 173.713,34.350 117.583 C 38.915 84.540,57.446 57.357,84.857 43.495 C 89.403 41.197,89.457 41.119,87.808 39.240 C 85.316 36.398,83.848 33.945,81.573 28.819 C 79.798 24.819,78.655 22.606,77.491 20.917 C 75.630 18.216,76.429 17.515,80.250 18.496 C 84.727 19.646,87.768 22.346,91.635 28.604 C 94.392 33.065,95.486 33.131,97.101 28.930 C 101.094 18.542,106.749 12.147,115.091 8.584 C 117.890 7.389,119.393 7.008,120.011 7.339 " stroke="#040404" fill="none" >
            </path>
            <path id="path3" d="M84.352 97.580 C 72.363 100.303,67.917 114.476,76.273 123.333 C 85.394 133.002,101.831 127.037,102.773 113.718 C 103.476 103.771,93.927 95.405,84.352 97.580 " stroke="#040404" fill="black" >
            </path>
            <path id="path4" d="M31.667 106.000 C 32.129 106.462,32.155 106.158,30.663 117.896 C 29.024 130.795,29.045 130.720,27.399 129.903 C 26.579 129.495,9.946 117.479,9.188 116.746 C 7.708 115.316,7.700 115.322,19.264 110.390 C 31.893 105.003,30.990 105.323,31.667 106.000 " stroke="#040404" fill="#372e52" >
            </path>
            <path id="path5" d="M216.583 108.142 C 227.488 110.218,240.167 117.821,252.895 129.917 C 264.385 140.836,269.996 145.915,276.667 151.435 C 297.469 168.650,316.628 178.334,343.417 185.174 C 360.453 189.524,372.449 189.939,386.595 186.669 C 391.929 185.435,391.912 185.391,388.741 192.083 C 379.112 212.413,372.095 223.441,362.668 233.060 C 338.393 257.828,303.375 268.016,264.910 261.502 C 220.128 253.919,182.301 226.048,170.527 191.962 C 163.464 171.517,163.220 149.768,169.886 134.869 C 176.425 120.254,190.693 109.744,206.667 107.773 C 208.363 107.564,214.805 107.803,216.583 108.142 " stroke="#040404" fill="#5a477e" >
            </path>
            <path id="path6" d="M180.750 318.152 C 188.579 319.210,200.500 319.884,207.610 319.672 C 207.751 319.668,207.737 319.949,207.556 320.708 C 205.948 327.481,204.669 335.684,204.170 342.417 C 203.836 346.925,203.967 346.451,202.580 348.160 C 199.242 352.271,196.220 357.050,193.886 361.907 C 193.536 362.635,193.174 363.254,193.082 363.282 C 192.846 363.355,183.829 355.392,175.417 347.682 C 171.831 344.395,172.018 344.729,172.331 342.167 C 172.948 337.119,174.522 329.072,176.260 322.083 C 177.352 317.693,177.386 317.603,177.879 317.723 C 178.083 317.773,179.375 317.966,180.750 318.152 " stroke="#040404" fill="none" >
            </path>
        </g>
        
</svg>